<?xml version="1.0" encoding="UTF-8"?>
<svg width="821px" height="821px" viewBox="0 0 821 821" version="1.1" xmlns="http://www.w3.org/2000/svg" xmlns:xlink="http://www.w3.org/1999/xlink">
    <title>01_hands</title>
    <g id="Icon" stroke="none" stroke-width="1" fill="none" fill-rule="evenodd">
        <g id="AppIcon-06" transform="translate(-101, -102)" fill="color(display-p3 1.000 1.000 1.000)">
            <path d="M511.901786,102.451172 C738.338786,102.451172 921.901786,286.014172 921.901786,512.451172 C921.901786,738.888172 738.338786,922.451172 511.901786,922.451172 C285.464786,922.451172 101.901786,738.888172 101.901786,512.451172 C101.901786,286.014172 285.464786,102.451172 511.901786,102.451172 Z M307.893511,651 C303.988907,651 301.610649,653.290872 300.758735,657.872617 C298.912923,668.291106 297.280089,676.459117 295.860233,682.37665 C294.440377,688.294184 292.275097,692.737037 289.364393,695.705211 C286.453688,698.673385 282.016639,700.96149 276.053245,702.569528 C270.08985,704.177565 261.570715,705.849238 250.49584,707.584546 C246.16528,708.376944 244,710.848209 244,714.99834 C244,719.000173 246.129784,721.504639 250.389351,722.511737 C261.464226,724.636604 270.001109,726.564478 276,728.29536 C281.998891,730.026241 286.471436,732.375768 289.417637,735.343942 C292.363838,738.312116 294.546866,742.676947 295.966722,748.438435 C297.386578,754.199924 298.983916,762.212443 300.758735,772.475994 C301.610649,776.825331 303.988907,779 307.893511,779 C312.011093,779 314.389351,776.709128 315.028286,772.127383 C316.732113,761.786363 318.311703,753.679774 319.767055,747.807615 C321.222407,741.935457 323.423184,737.535211 326.369384,734.606879 C329.315585,731.678546 333.805879,729.406488 339.840266,727.790704 C345.874653,726.174919 354.287299,724.415264 365.078203,722.511737 C369.692734,721.504639 372,719.000173 372,714.99834 C372,711.005361 369.870216,708.534096 365.610649,707.584546 C354.606767,705.459679 346.069884,703.534571 340,701.809224 C333.930116,700.083876 329.422074,697.737668 326.475874,694.770602 C323.529673,691.803535 321.328896,687.477991 319.873544,681.793972 C318.418192,676.109953 316.803106,668.174902 315.028286,657.988821 C314.389351,653.329607 312.011093,651 307.893511,651 Z M403.504634,315 C396.172973,315 389.779906,317.777172 384.325434,323.331517 C378.800125,328.872595 376.055179,335.394859 376.090598,342.898309 C376.126017,350.40176 378.906381,356.930658 384.43169,362.485002 L504.500916,483.275412 C502.163285,484.394241 499.790235,485.592117 497.381767,486.869042 C494.973299,488.145966 492.564831,489.580433 490.156362,491.172443 L352.342393,352.806911 C346.817083,347.188444 340.388598,344.37921 333.056937,344.37921 C325.725277,344.37921 319.33221,347.188444 313.877738,352.806911 C308.423266,358.359044 305.69603,364.848141 305.69603,372.274203 C305.69603,379.700264 308.423266,386.190467 313.877738,391.744811 L450.097869,528.627785 C448.326936,530.706241 446.573713,532.817865 444.838199,534.962656 C443.102685,537.107447 441.455718,539.251132 439.897297,541.393711 L314.515274,415.316503 C308.989964,409.841759 302.52606,407.084487 295.123562,407.044687 C287.721064,407.004887 281.327998,409.762159 275.944363,415.316503 C270.489891,420.793458 267.780364,427.299692 267.815783,434.835204 C267.851201,442.370716 270.560728,448.915644 275.944363,454.469989 L411.73947,590.852142 C410.67691,593.675748 409.702897,596.48664 408.817431,599.284818 C407.931965,602.082996 407.135045,604.869565 406.426672,607.644526 L311.646363,512.535221 C306.191891,506.918965 299.781115,504.090937 292.414036,504.051137 C285.046956,504.011337 278.636181,506.761975 273.181708,512.303053 C267.727236,517.857398 265,524.386295 265,531.889746 C265,539.393196 267.727236,545.922094 273.181708,551.476439 L425.233976,704.554792 C442.589115,721.890008 460.953685,734.597892 480.327687,742.678447 C499.701689,750.759001 519.270493,754.514043 539.0341,753.943573 C558.797708,753.373103 577.994616,748.807131 596.624826,740.245657 C615.255037,731.684183 632.468501,719.430132 648.265219,703.483503 C669.799759,682.276608 684.091184,660.010586 691.139496,636.685434 C698.187807,613.360283 698.878471,588.170048 693.211487,561.11473 C691.653066,549.820306 688.961249,538.226276 685.136035,526.332637 C681.31082,514.438999 676.918908,502.776976 671.960297,491.346569 C667.001685,479.916161 662.025365,469.265728 657.031335,459.395268 C652.037306,449.524809 647.592265,440.974391 643.696213,433.744014 C639.941836,426.279258 635.974947,418.414288 631.795547,410.149105 C627.616146,401.883922 623.631548,394.270468 619.841752,387.308743 C616.051956,380.347018 612.846569,375.079567 610.225588,371.50639 C605.833676,365.441276 600.450041,361.814479 594.074684,360.625999 C587.699327,359.43752 581.678156,360.927265 576.011172,365.095235 C569.423303,369.906641 565.580379,375.846827 564.482401,382.915792 C563.384423,389.984756 564.50011,398.047622 567.829463,407.104387 L593.543404,475.696783 C594.676801,478.471744 595.172662,480.644727 595.030987,482.21573 C594.889313,483.786734 594.322614,485.091851 593.330892,486.131079 C592.197495,487.221163 590.851586,487.750175 589.293166,487.718114 C587.734745,487.686052 585.857557,486.597626 583.6616,484.452836 L422.790089,323.447601 C417.264779,317.815867 410.836294,315 403.504634,315 Z M685.767524,359.395797 C679.374536,358.206565 673.336713,359.697254 667.654057,363.867862 C661.971401,367.797306 658.277674,372.845181 656.572877,379.011487 C659.982471,385.660124 663.33879,392.32812 666.641834,399.015476 C669.944878,405.702832 673.336713,412.338746 676.81734,418.92322 C680.5821,425.89046 685.057192,434.526497 690.242616,444.83133 C695.42804,455.136164 700.595705,466.448249 705.745613,478.767587 C710.89552,491.086924 715.49492,503.828853 719.543812,516.993375 C723.592705,530.157897 726.434033,543.013771 728.067797,555.560999 C734.673885,588.631605 733.448562,619.372975 724.391829,647.785111 C715.335095,676.197246 698.340401,702.662913 673.407746,727.182111 C668.719555,731.932401 663.924814,736.348601 659.023523,740.430709 C654.122232,744.512817 649.114391,748.369247 644,752 C661.261069,749.955627 678.095938,744.732963 694.504608,736.332007 C710.913278,727.931051 726.114384,716.674831 740.107925,702.563349 C761.630986,681.281074 775.944176,658.969976 783.047497,635.630053 C790.150817,612.290131 790.896666,587.051862 785.285043,559.915247 C783.651279,548.757485 780.898742,537.208107 777.027433,525.267111 C773.156123,513.326115 768.769823,501.636795 763.868532,490.199148 C758.967241,478.761502 753.994916,468.104324 748.951559,458.227614 C743.908201,448.350904 739.397593,439.795071 735.419734,432.560115 C731.726007,425.090632 727.783664,417.220682 723.592705,408.950265 C719.401746,400.679848 715.406128,393.080932 711.605852,386.153517 C707.805576,379.226102 704.591323,373.968038 701.963094,370.379323 C697.559036,364.246204 692.160512,360.585029 685.767524,359.395797 Z M493.989442,313 C486.564605,313.03951 480.10357,315.866441 474.606335,321.481187 C474.320764,321.767289 474.035194,322.080213 473.749623,322.419959 C473.464052,322.759704 473.214178,323.151977 473,323.596775 L534.897436,384 C535.254399,377.904692 536.182504,372.076488 537.68175,366.515385 C539.180995,360.954283 541.287079,355.745221 544,350.888197 L513.479638,321.598534 C507.911011,315.827326 501.414279,312.96128 493.989442,313 Z M605.234432,187 C600.56044,187 597.97558,189.490587 597.479853,194.471761 C595.921856,206.620155 594.346154,216.153378 592.752747,223.071429 C591.159341,229.98948 588.627595,235.173865 585.157509,238.624585 C581.687424,242.075305 576.429182,244.628461 569.382784,246.284053 C562.336386,247.939646 552.581197,249.611296 540.117216,251.299003 C538.063492,251.518272 536.363858,252.389812 535.018315,253.913621 C533.672772,255.437431 533,257.24474 533,259.335548 C533,264.033223 535.336996,266.78959 540.010989,267.604651 C552.545788,270.156146 562.336386,272.404762 569.382784,274.350498 C576.429182,276.296235 581.687424,278.924142 585.157509,282.234219 C588.627595,285.544297 591.159341,290.493355 592.752747,297.081395 C594.346154,303.669435 595.921856,312.849391 597.479853,324.621262 C597.692308,326.78959 598.542125,328.561462 600.029304,329.936877 C601.516484,331.312292 603.251526,332 605.234432,332 C610.333333,332 613.095238,329.359911 613.520147,324.079734 C614.936508,312.228128 616.423687,302.953488 617.981685,296.255814 C619.539683,289.55814 622.053724,284.480066 625.52381,281.021595 C628.993895,277.563123 634.216728,274.93577 641.192308,273.139535 C648.167888,271.3433 657.781441,269.498339 670.032967,267.604651 C675.344322,266.946844 678,264.190476 678,259.335548 C678,254.706534 675.663004,252.027685 670.989011,251.299003 C658.525031,248.809524 648.752137,246.627907 641.67033,244.754153 C634.588523,242.880399 629.277167,240.288483 625.736264,236.978405 C622.19536,233.668328 619.628205,228.754707 618.034799,222.237542 C616.441392,215.720377 614.936508,206.535991 613.520147,194.684385 C613.02442,189.561462 610.262515,187 605.234432,187 Z M449.5,184 C446.236842,184 444.392449,185.685127 443.966819,189.055382 C442.618993,196.513201 441.413043,202.334449 440.34897,206.519126 C439.284897,210.703804 437.706522,213.867693 435.613844,216.010796 C433.521167,218.153898 430.346682,219.763983 426.090389,220.841052 C421.834096,221.918121 415.875286,223.077957 408.213959,224.320558 C404.737986,224.872336 403,226.801348 403,230.107597 C403,233.038636 404.702517,234.895918 408.107551,235.679442 C415.768879,237.155997 421.745423,238.490746 426.037185,239.683688 C430.328947,240.87663 433.538902,242.50989 435.667048,244.583468 C437.795195,246.657047 439.37357,249.763 440.402174,253.901328 C441.430778,258.039656 442.618993,263.792484 443.966819,271.159811 C444.392449,274.386604 446.236842,276 449.5,276 C452.614631,276 454.459025,274.346876 455.033181,271.040628 C456.66476,261.068912 458.26087,253.923399 459.82151,249.604088 C461.382151,245.284777 464.343822,242.339391 468.706522,240.76793 C473.069222,239.196469 480.358124,237.500306 490.573227,235.679442 C494.191076,234.895918 496,233.038636 496,230.107597 C496,226.955846 494.297483,225.026833 490.892449,224.320558 C483.089245,222.84621 477.059497,221.492701 472.803204,220.260031 C468.546911,219.027361 465.354691,217.378099 463.226545,215.312246 C461.098398,213.246392 459.520023,210.179064 458.491419,206.110259 C457.462815,202.041455 456.310069,196.39512 455.033181,189.171255 C454.394737,185.723752 452.550343,184 449.5,184 Z" id="01_hands"></path>
        </g>
    </g>
</svg>